<svg width="76" height="82" viewBox="0 0 76 82" fill="none" xmlns="http://www.w3.org/2000/svg">
<path fill-rule="evenodd" clip-rule="evenodd" d="M43.0108 1.91898C39.971 0.212097 36.2616 0.211543 33.2213 1.91752L5.88985 17.2537C2.7364 19.0231 0.783834 22.3571 0.783296 25.9731L0.778809 56.1707C0.778271 59.7867 2.72984 63.1212 5.88276 64.8916L33.2097 80.2359C36.2495 81.9428 39.9588 81.9433 42.9991 80.2374L70.3306 64.9012C73.484 63.1318 75.4366 59.7977 75.4371 56.1818L75.4416 25.9842C75.4422 22.3682 73.4906 19.0336 70.3377 17.2633L43.0108 1.91898Z" fill="#4FC1BA"/>
<g clip-path="url(#clip0)">
<path fill-rule="evenodd" clip-rule="evenodd" d="M60.8987 29.9728L55.5556 24.7L31.4607 48.4553L21.9762 39.0955L16.6023 44.3614L31.4602 59.0238L60.8987 29.9728Z" fill="white"/>
</g>
<defs>
<clipPath id="clip0">
<rect x="10.9829" y="14.2555" width="54.6058" height="53.8873" fill="white"/>
</clipPath>
</defs>
</svg>
