<svg width="88" height="85" viewBox="0 0 88 85" fill="none" xmlns="http://www.w3.org/2000/svg">
<path d="M43.0606 7.50818L26.3996 7.50922C22.7836 7.50945 19.4494 9.46173 17.6797 12.615L1.9011 40.7293C0.131379 43.8826 0.201807 47.7457 2.0853 50.8324L19.4963 79.3656C21.3122 82.3416 24.5469 84.157 28.0332 84.1568L61.459 84.1547C65.075 84.1545 68.4092 82.2022 70.1789 79.0489L85.9575 50.9346C87.7272 47.7813 87.6568 43.9182 85.7733 40.8316L70.1128 15.167L43.0158 56.3491L43.0606 7.50818Z" fill="#8968BA"/>
<path d="M69.7782 0.421143C70.4754 0.421099 71.1413 0.646284 71.6862 1.04629L49.4832 34.7907L49.5147 0.422416L69.7782 0.421143Z" fill="#FCC760"/>
</svg>
