<svg width="111" height="79" viewBox="0 0 111 79" fill="none" xmlns="http://www.w3.org/2000/svg">
<rect opacity="0.8" y="71.137" width="37.0685" height="7.86301" rx="3.93151" fill="url(#paint0_radial)"/>
<rect opacity="0.8" x="37" y="71.137" width="37.0685" height="7.86301" rx="3.93151" fill="url(#paint1_radial)"/>
<rect opacity="0.8" x="73" y="71.137" width="37.0685" height="7.86301" rx="3.93151" fill="url(#paint2_radial)"/>
<path fill-rule="evenodd" clip-rule="evenodd" d="M7.86304 0H5V67C5 69.2091 6.79086 71 9 71H28C30.2091 71 32 69.2091 32 67V0H29.2055V65.7671C29.2055 66.8717 28.3101 67.7671 27.2055 67.7671H9.86304C8.75847 67.7671 7.86304 66.8717 7.86304 65.7671V0Z" fill="url(#paint3_linear)"/>
<path fill-rule="evenodd" clip-rule="evenodd" d="M44.9315 0H42V67C42 69.2091 43.7909 71 46 71H65C67.2091 71 69 69.2091 69 67V0H66.274V65.7671C66.274 66.8717 65.3786 67.7671 64.274 67.7671H46.9315C45.8269 67.7671 44.9315 66.8717 44.9315 65.7671V0Z" fill="url(#paint4_linear)"/>
<path fill-rule="evenodd" clip-rule="evenodd" d="M82 0H79V67C79 69.2091 80.7909 71 83 71H102C104.209 71 106 69.2091 106 67V0H103.342V65.7671C103.342 66.8717 102.447 67.7671 101.342 67.7671H84C82.8954 67.7671 82 66.8717 82 65.7671V0Z" fill="url(#paint5_linear)"/>
<ellipse cx="13.4795" cy="62.1282" rx="5.61644" ry="5.59392" fill="#FCC760"/>
<ellipse cx="50.548" cy="62.1282" rx="5.61644" ry="5.59392" fill="#8968BA"/>
<ellipse cx="97.7261" cy="50.8953" rx="5.61644" ry="5.59392" fill="#4FC1BA"/>
<ellipse cx="87.6164" cy="46.4021" rx="5.61644" ry="5.59392" fill="#4FC1BA"/>
<ellipse cx="96.6028" cy="39.6624" rx="5.61644" ry="5.59392" fill="#4FC1BA"/>
<ellipse cx="87.6164" cy="32.9227" rx="5.61644" ry="5.59392" fill="#4FC1BA"/>
<ellipse cx="23.5891" cy="57.6351" rx="5.61644" ry="5.59392" fill="#FCC760"/>
<ellipse cx="60.6576" cy="57.6351" rx="5.61644" ry="5.59392" fill="#8968BA"/>
<ellipse cx="97.7261" cy="62.1282" rx="5.61644" ry="5.59392" fill="#4FC1BA"/>
<ellipse cx="13.4795" cy="50.8953" rx="5.61644" ry="5.59392" fill="#FCC760"/>
<ellipse cx="50.548" cy="50.8953" rx="5.61644" ry="5.59392" fill="#8968BA"/>
<ellipse cx="87.6164" cy="57.6351" rx="5.61644" ry="5.59392" fill="#4FC1BA"/>
<ellipse cx="23.5891" cy="46.4021" rx="5.61644" ry="5.59392" fill="#FCC760"/>
<ellipse cx="14.6028" cy="39.6624" rx="5.61644" ry="5.59392" fill="#FCC760"/>
<ellipse cx="23.5891" cy="32.9227" rx="5.61644" ry="5.59392" fill="#FCC760"/>
<ellipse cx="13.4795" cy="28.4295" rx="5.61644" ry="5.59392" fill="#FCC760"/>
<ellipse cx="22.4658" cy="21.6899" rx="5.61644" ry="5.59392" fill="#FCC760"/>
<ellipse cx="23.5891" cy="10.457" rx="5.61644" ry="5.59392" fill="#FCC760"/>
<defs>
<radialGradient id="paint0_radial" cx="0" cy="0" r="1" gradientUnits="userSpaceOnUse" gradientTransform="translate(18.5342 75.0685) rotate(90) scale(3.93151 18.5342)">
<stop stop-color="#222222" stop-opacity="0.1"/>
<stop offset="1" stop-color="#222222" stop-opacity="0"/>
</radialGradient>
<radialGradient id="paint1_radial" cx="0" cy="0" r="1" gradientUnits="userSpaceOnUse" gradientTransform="translate(55.5342 75.0685) rotate(90) scale(3.93151 18.5342)">
<stop stop-color="#222222" stop-opacity="0.1"/>
<stop offset="1" stop-color="#222222" stop-opacity="0"/>
</radialGradient>
<radialGradient id="paint2_radial" cx="0" cy="0" r="1" gradientUnits="userSpaceOnUse" gradientTransform="translate(91.5342 75.0685) rotate(90) scale(3.93151 18.5342)">
<stop stop-color="#222222" stop-opacity="0.1"/>
<stop offset="1" stop-color="#222222" stop-opacity="0"/>
</radialGradient>
<linearGradient id="paint3_linear" x1="19.1494" y1="70.0137" x2="19.1494" y2="-0.753415" gradientUnits="userSpaceOnUse">
<stop stop-color="#E3E3E3"/>
<stop offset="1" stop-color="#C4C4C4" stop-opacity="0"/>
</linearGradient>
<linearGradient id="paint4_linear" x1="56.2179" y1="70.0137" x2="56.2179" y2="-0.753415" gradientUnits="userSpaceOnUse">
<stop stop-color="#E3E3E3"/>
<stop offset="1" stop-color="#C4C4C4" stop-opacity="0"/>
</linearGradient>
<linearGradient id="paint5_linear" x1="93.2864" y1="70.0137" x2="93.2864" y2="-0.753415" gradientUnits="userSpaceOnUse">
<stop stop-color="#E3E3E3"/>
<stop offset="1" stop-color="#C4C4C4" stop-opacity="0"/>
</linearGradient>
</defs>
</svg>
