<svg width="73" height="83" viewBox="0 0 73 83" fill="none" xmlns="http://www.w3.org/2000/svg">
<path fill-rule="evenodd" clip-rule="evenodd" d="M0.207764 63.0889L38.2969 42.7718L37.0673 0.776611C38.1884 0.964956 39.2846 1.34572 40.3054 1.9189L67.8875 17.4064C71.0404 19.1768 72.9919 22.5114 72.9914 26.1274L72.9869 56.6114C72.9863 60.2274 71.0338 63.5614 67.8803 65.3308L40.2937 80.8102C37.2534 82.5161 33.544 82.5156 30.5042 80.8087L2.92218 65.3212C1.87595 64.7337 0.962001 63.974 0.207764 63.0889Z" fill="#E55E5E"/>
<path fill-rule="evenodd" clip-rule="evenodd" d="M2.90479 54.9841L2.90898 26.7321L28.6793 40.8766L2.90479 54.9841Z" fill="#FCC760"/>
<path fill-rule="evenodd" clip-rule="evenodd" d="M31.0887 7.32739L31.7932 35.7646L5.70654 21.5789C5.79365 21.5239 5.88244 21.4711 5.97289 21.4203L31.0887 7.32739Z" fill="#8968BA"/>
</svg>
