<svg width="113" height="39" viewBox="0 0 113 39" fill="none" xmlns="http://www.w3.org/2000/svg">
<path d="M92.6887 0H112.567V39H104.057V23.4L92.6846 38.3744L81.3124 23.4V39H73.3785V0H92.6887H73.3785L92.6846 25.3581L111.999 0H92.6887Z" fill="white"/>
<path d="M41.6134 39H32.1836L51.4937 0L70.8038 39H61.3741L51.4937 19.0369L41.6134 39Z" fill="white"/>
<path d="M12.0164 0C15.2687 0 18.0838 0.973094 20.4196 2.88438C22.7553 4.79567 23.9371 7.08871 23.9371 9.75C23.9371 10.8145 23.7271 11.8291 23.3427 12.7969C26.2994 13.8614 28.7218 15.5113 30.6141 17.7612C32.5063 20.0354 33.4884 22.5517 33.4884 25.3581C33.4884 29.1323 31.8307 32.3493 28.5784 35.0106C25.2965 37.6719 21.3626 39 16.7798 39H0V0H12.0164ZM9.65506 7.79187V9.75V11.6837H12.0164C13.613 11.6837 14.4103 11.0565 14.4103 9.75C14.4103 8.44354 13.613 7.79187 12.0164 7.79187H9.65506ZM9.65506 19.5V25.3581V31.1838H16.7798C18.7312 31.1838 20.4172 30.6309 21.8364 29.4937C23.226 28.3567 23.9371 26.9791 23.9371 25.3581C23.9371 23.7613 23.226 22.3838 21.8364 21.2225C20.4172 20.0854 18.7312 19.5 16.7798 19.5H12.0164H9.65506Z" fill="white"/>
</svg>
