<svg width="77" height="63" viewBox="0 0 77 63" fill="none" xmlns="http://www.w3.org/2000/svg">
<g clip-path="url(#clip0)">
<path d="M0 49.03L47.457 0.101196L77 63L0 49.03Z" fill="white"/>
<path d="M47.4906 0L44.1632 43.3948L77 63L47.4906 0Z" fill="#F1F1F1"/>
<path d="M77 63L44.1632 43.3948L0 49.03L77 63Z" fill="white"/>
<path d="M47.4906 0L44.1632 43.3948L0 49.03L47.4906 0Z" fill="#F8F7F7"/>
<path d="M14.7883 39.2104H17.4435V47.5452H19.4937V39.2104H22.1489V37.4895H14.7883V39.2104Z" fill="#17539F"/>
<path d="M27.5936 40.054C26.7534 40.054 25.9803 40.0878 25.4426 40.4927V37.4895H23.4596V47.579H25.4426V43.3947C25.4426 42.0787 25.7787 41.775 27.0894 41.775C28.5683 41.775 28.7027 42.0787 28.7027 43.3272V47.579H30.6857V42.8548C30.6857 41.775 30.484 41.1339 30.0471 40.7289C29.5766 40.2565 28.8372 40.054 27.5936 40.054Z" fill="#17539F"/>
<path d="M37.1389 45.2844C37.1389 45.8918 37.1389 46.0943 35.492 46.0943C34.7862 46.0943 34.3829 46.0268 34.1812 45.7906C33.9796 45.5881 33.8787 45.1494 33.8787 44.542H39.1219V44.4071C39.1219 44.3058 39.1219 44.2383 39.1219 44.1371C39.1219 43.9684 39.1555 43.7997 39.1555 43.6309C39.1555 42.3824 39.021 41.4038 38.4497 40.8302C37.9119 40.2903 37.0717 40.0541 35.5256 40.0541C34.1476 40.0541 33.1057 40.1891 32.5007 40.8302C31.8958 41.4713 31.7949 42.5174 31.7949 43.9009C31.7949 47.0053 32.5343 47.7477 35.5592 47.7477C37.0381 47.7477 37.8783 47.579 38.4161 47.1741C39.0546 46.7016 39.1219 46.0268 39.1219 45.2844H37.1389ZM35.492 41.6738C36.9708 41.6738 37.1389 41.8425 37.1725 43.0235H33.9123C33.9123 42.4162 34.0132 42.0787 34.1812 41.91C34.3493 41.775 34.719 41.6738 35.492 41.6738Z" fill="#17539F"/>
<path d="M44.0289 40.0541C42.4492 40.0541 41.5754 40.2903 41.004 40.8302C40.4327 41.4038 40.1974 42.2812 40.1974 43.9009C40.1974 45.5206 40.4327 46.3979 41.004 46.9716C41.5754 47.5452 42.4492 47.7477 44.0289 47.7477C45.6086 47.7477 46.4824 47.5115 47.0538 46.9716C47.6251 46.3979 47.8604 45.5206 47.8604 43.9009C47.8604 42.2812 47.6251 41.4038 47.0538 40.8302C46.4824 40.2903 45.6086 40.0541 44.0289 40.0541ZM45.5077 45.7231C45.2725 45.993 44.8691 46.0943 44.0289 46.0943C43.1887 46.0943 42.7517 45.993 42.5501 45.7231C42.3148 45.4531 42.214 44.9132 42.214 43.9009C42.214 42.8548 42.3148 42.3487 42.5501 42.0787C42.7853 41.8088 43.1887 41.7075 44.0289 41.7075C44.8691 41.7075 45.3061 41.8088 45.5077 42.0787C45.743 42.3487 45.8438 42.8886 45.8438 43.9009C45.8438 44.947 45.743 45.4531 45.5077 45.7231Z" fill="#17539F"/>
<path d="M54.3135 40.4927C53.8093 40.0878 53.0363 40.054 52.0952 40.054C49.4737 40.054 48.7343 40.8976 48.7343 43.8671C48.7343 45.2506 48.8687 46.3304 49.4737 46.9716C50.0114 47.5452 50.8517 47.7814 52.4313 47.7814C54.0782 47.7814 54.9857 47.5452 55.557 46.9378C56.1956 46.263 56.3301 45.2169 56.3301 43.8671V37.4895H54.3807V40.4927H54.3135ZM52.3977 46.128C51.5911 46.128 51.2214 46.0267 51.0533 45.7905C50.8181 45.4868 50.7845 44.812 50.7845 43.8671C50.7845 42.9898 50.8181 42.3486 51.0869 42.0449C51.2886 41.775 51.6583 41.7075 52.4313 41.7075C53.2716 41.7075 53.6749 41.8087 53.9438 42.0787C54.2126 42.3486 54.3135 42.8885 54.3135 43.8671C54.2463 45.9255 53.9438 46.128 52.3977 46.128Z" fill="#6ABD9E"/>
<path d="M63.9594 40.8302C63.3881 40.2565 62.5142 40.0541 60.9345 40.0541C59.3549 40.0541 58.481 40.2903 57.9097 40.8302C57.3383 41.4038 57.103 42.2812 57.103 43.9009C57.103 45.5206 57.3383 46.3979 57.9097 46.9716C58.481 47.5452 59.3549 47.7477 60.9345 47.7477C62.5142 47.7477 63.3881 47.5115 63.9594 46.9716C64.5308 46.3979 64.7661 45.5206 64.7661 43.9009C64.7661 42.3149 64.5308 41.4038 63.9594 40.8302ZM62.4134 45.7231C62.1781 45.993 61.7748 46.0943 60.9345 46.0943C60.0943 46.0943 59.6574 45.993 59.4557 45.7231C59.2204 45.4531 59.1196 44.9132 59.1196 43.9009C59.1196 42.8548 59.2204 42.3487 59.4557 42.0787C59.691 41.8088 60.0943 41.7075 60.9345 41.7075C61.7748 41.7075 62.2117 41.8088 62.4134 42.0787C62.6486 42.3487 62.7495 42.8886 62.7495 43.9009C62.7495 44.947 62.6486 45.4531 62.4134 45.7231Z" fill="#6ABD9E"/>
</g>
<defs>
<clipPath id="clip0">
<rect width="77" height="63" fill="white"/>
</clipPath>
</defs>
</svg>
