<svg width="148" height="24" viewBox="0 0 148 24" fill="none" xmlns="http://www.w3.org/2000/svg">
<path d="M37.2119 18.8238C35.9034 18.8238 34.76 18.562 33.7815 18.0384C32.8149 17.5031 32.0663 16.7526 31.5358 15.7868C31.0172 14.8209 30.7578 13.7038 30.7578 12.4355C30.7578 11.1788 31.0172 10.0733 31.5358 9.11912C32.0663 8.1533 32.8149 7.40858 33.7815 6.88494C34.76 6.34967 35.9034 6.08203 37.2119 6.08203C38.0371 6.08203 38.8328 6.20421 39.5991 6.44858C40.3771 6.69294 41.0019 7.02458 41.4734 7.44349L40.4655 9.76494C39.4399 9.03185 38.379 8.6653 37.2827 8.6653C36.2689 8.6653 35.4908 8.9853 34.9486 9.6253C34.4063 10.2537 34.1352 11.1904 34.1352 12.4355C34.1352 13.6922 34.4063 14.6406 34.9486 15.2806C35.4908 15.9206 36.2689 16.2406 37.2827 16.2406C38.379 16.2406 39.4399 15.874 40.4655 15.1409L41.4734 17.4624C41.0019 17.8813 40.3771 18.2129 39.5991 18.4573C38.8328 18.7017 38.0371 18.8238 37.2119 18.8238Z" fill="#222222"/>
<path d="M48.9168 18.8238C47.6319 18.8238 46.512 18.5678 45.5571 18.0558C44.6023 17.5322 43.8655 16.7875 43.3468 15.8217C42.8399 14.8558 42.5864 13.7271 42.5864 12.4355C42.5864 11.1438 42.8458 10.0209 43.3645 9.06676C43.8832 8.11258 44.614 7.37949 45.5571 6.86748C46.512 6.34385 47.6319 6.08203 48.9168 6.08203C50.2017 6.08203 51.3157 6.34385 52.2588 6.86748C53.2136 7.37949 53.9445 8.11258 54.4514 9.06676C54.9583 10.0209 55.2118 11.1438 55.2118 12.4355C55.2118 13.7271 54.9583 14.8558 54.4514 15.8217C53.9445 16.7875 53.2136 17.5322 52.2588 18.0558C51.3157 18.5678 50.2017 18.8238 48.9168 18.8238ZM48.9168 16.3278C49.8599 16.3278 50.5966 15.9962 51.1271 15.3329C51.6694 14.6697 51.9405 13.7038 51.9405 12.4355C51.9405 11.1788 51.6694 10.2246 51.1271 9.57294C50.5966 8.90967 49.8599 8.57803 48.9168 8.57803C47.9737 8.57803 47.237 8.90385 46.7065 9.55549C46.176 10.2071 45.9108 11.1671 45.9108 12.4355C45.9108 13.7155 46.176 14.6871 46.7065 15.3504C47.237 16.002 47.9737 16.3278 48.9168 16.3278Z" fill="#222222"/>
<path d="M69.9004 6.23912V18.6668H67.0005L66.9828 12.9766L64.5957 18.6668H62.4914L60.0866 13.0464V18.6668H57.2044V6.23912H59.8037L63.5701 14.722L67.3188 6.23912H69.9004Z" fill="#222222"/>
<path d="M84.9582 6.23912V18.6668H82.0582L82.0406 12.9766L79.6534 18.6668H77.5492L75.1444 13.0464V18.6668H72.2621V6.23912H74.8615L78.6278 14.722L82.3765 6.23912H84.9582Z" fill="#222222"/>
<path d="M87.2669 6.23912H96.2496V8.75258H90.5028V11.0915H95.8782V13.6049H90.5028V16.1533H96.2496V18.6668H87.2669V6.23912Z" fill="#222222"/>
<path d="M109.202 6.23912V18.6668H106.744L101.033 11.6151V18.6668H97.9385V6.23912H100.361L106.072 13.2558V6.23912H109.202Z" fill="#222222"/>
<path d="M114.306 8.89221H110.557V6.23912H121.414V8.89221H117.666V18.6668H114.306V8.89221Z" fill="#222222"/>
<path d="M128.056 18.8238C126.771 18.8238 125.652 18.5678 124.697 18.0558C123.742 17.5322 123.005 16.7875 122.486 15.8217C121.98 14.8558 121.726 13.7271 121.726 12.4355C121.726 11.1438 121.985 10.0209 122.504 9.06676C123.023 8.11258 123.754 7.37949 124.697 6.86748C125.652 6.34385 126.771 6.08203 128.056 6.08203C129.341 6.08203 130.455 6.34385 131.398 6.86748C132.353 7.37949 133.084 8.11258 133.591 9.06676C134.098 10.0209 134.351 11.1438 134.351 12.4355C134.351 13.7271 134.098 14.8558 133.591 15.8217C133.084 16.7875 132.353 17.5322 131.398 18.0558C130.455 18.5678 129.341 18.8238 128.056 18.8238ZM128.056 16.3278C128.999 16.3278 129.736 15.9962 130.267 15.3329C130.809 14.6697 131.08 13.7038 131.08 12.4355C131.08 11.1788 130.809 10.2246 130.267 9.57294C129.736 8.90967 128.999 8.57803 128.056 8.57803C127.113 8.57803 126.377 8.90385 125.846 9.55549C125.316 10.2071 125.05 11.1671 125.05 12.4355C125.05 13.7155 125.316 14.6871 125.846 15.3504C126.377 16.002 127.113 16.3278 128.056 16.3278Z" fill="#222222"/>
<path d="M147.236 18.6668H143.718L142.091 14.53C141.902 14.0646 141.46 13.8318 140.765 13.8318H139.562V18.6668H136.291V6.23912H142.144C143.665 6.23912 144.808 6.56494 145.574 7.21658C146.341 7.85658 146.724 8.77585 146.724 9.97439C146.724 10.8122 146.494 11.5395 146.034 12.1562C145.586 12.7613 144.949 13.1918 144.124 13.4478C144.478 13.5177 144.796 13.6806 145.079 13.9366C145.362 14.1926 145.586 14.5358 145.751 14.9664L147.236 18.6668ZM141.613 11.3882C142.321 11.3882 142.833 11.2835 143.152 11.074C143.47 10.8529 143.629 10.5155 143.629 10.0617C143.629 9.58458 143.47 9.2413 143.152 9.03185C142.845 8.82239 142.332 8.71767 141.613 8.71767H139.527V11.3882H141.613Z" fill="#222222"/>
<g clip-path="url(#clip0)">
<mask id="mask0" mask-type="alpha" maskUnits="userSpaceOnUse" x="0" y="0" width="23" height="24">
<path d="M10.5031 0.198567C10.8512 0.00634393 11.2761 0.0064059 11.6243 0.19873L21.4449 5.62418C21.806 5.82366 22.0295 6.19939 22.0295 6.60682L22.0279 17.4005C22.0278 17.8079 21.8042 18.1836 21.443 18.3829L11.6206 23.8055C11.2725 23.9978 10.8477 23.9976 10.4995 23.8053L0.678769 18.3798C0.317686 18.1804 0.0942383 17.8046 0.0942383 17.3972L0.095876 6.60362C0.0959332 6.19618 0.319553 5.82052 0.680693 5.62114L10.5031 0.198567Z" fill="white"/>
</mask>
<g mask="url(#mask0)">
<path d="M22.1676 3.91846L12.8162 11.8232L23.5819 17.735L23.6094 17.6765C24.6183 15.5111 25.0348 13.1173 24.8085 10.7341L24.7989 10.6362C24.5512 8.2165 23.6505 5.91295 22.1991 3.96041L22.1676 3.91846Z" fill="#8968BA"/>
<path d="M11.7309 13.55L9.04065 25.4806L9.10953 25.4904C11.6475 25.8392 14.2414 25.4887 16.599 24.4684L16.6908 24.4283C19.0838 23.3721 21.1157 21.6722 22.5582 19.5343L22.5767 19.5065L11.7309 13.55Z" fill="#4FC1BA"/>
<path d="M0.146963 3.57544L0.106093 3.62676C-1.15133 5.21375 -2.03865 7.05897 -2.48649 9.03152C-3.0143 11.3563 -2.91319 13.7766 -2.19327 16.0509C-1.47336 18.3252 -0.159812 20.374 1.61639 21.9929C3.12335 23.3664 4.91865 24.3896 6.86966 24.9936L6.93298 25.0129L9.88564 12.3498L0.146963 3.57544Z" fill="#E55E5E"/>
<path d="M11.2821 -1.61752C9.33016 -1.65324 7.39264 -1.2824 5.59669 -0.529338C4.13961 0.0816426 2.80246 0.933009 1.64181 1.98555L1.58948 2.03328L11.0502 10.6426L20.8298 2.3854L20.7794 2.33585C19.6854 1.26701 18.4159 0.383805 17.0221 -0.27533L16.9223 -0.32203C15.1561 -1.14028 13.2339 -1.58179 11.2821 -1.61752Z" fill="#FCC760"/>
</g>
</g>
<defs>
<clipPath id="clip0">
<path d="M0 0H22.1032V24H0V0Z" fill="white"/>
</clipPath>
</defs>
</svg>
