<svg width="1026" height="181" viewBox="0 0 1026 181" fill="none" xmlns="http://www.w3.org/2000/svg">
<path d="M59.04 146.296C48.384 146.296 39.072 144.136 31.104 139.816C23.232 135.4 17.136 129.208 12.816 121.24C8.592 113.272 6.48 104.056 6.48 93.592C6.48 83.224 8.592 74.104 12.816 66.232C17.136 58.264 23.232 52.12 31.104 47.8C39.072 43.384 48.384 41.176 59.04 41.176C65.76 41.176 72.24 42.184 78.48 44.2C84.816 46.216 89.904 48.952 93.744 52.408L85.536 71.56C77.184 65.512 68.544 62.488 59.616 62.488C51.36 62.488 45.024 65.128 40.608 70.408C36.192 75.592 33.984 83.32 33.984 93.592C33.984 103.96 36.192 111.784 40.608 117.064C45.024 122.344 51.36 124.984 59.616 124.984C68.544 124.984 77.184 121.96 85.536 115.912L93.744 135.064C89.904 138.52 84.816 141.256 78.48 143.272C72.24 145.288 65.76 146.296 59.04 146.296Z" fill="#222222"/>
<path d="M391.04 42.472V145H367.424L367.28 98.056L347.84 145H330.704L311.12 98.632V145H287.648V42.472H308.816L339.488 112.456L370.016 42.472H391.04ZM513.665 42.472V145H490.049L489.905 98.056L470.465 145H453.329L433.745 98.632V145H410.273V42.472H431.441L462.113 112.456L492.641 42.472H513.665ZM532.466 42.472H605.618V63.208H558.818V82.504H602.594V103.24H558.818V124.264H605.618V145H532.466V42.472ZM711.1 42.472V145H691.084L644.572 86.824V145H619.372V42.472H639.1L685.612 100.36V42.472H711.1ZM752.662 64.36H722.134V42.472H810.55V64.36H780.022V145H752.662V64.36ZM864.641 146.296C854.177 146.296 845.057 144.184 837.281 139.96C829.505 135.64 823.505 129.496 819.281 121.528C815.153 113.56 813.089 104.248 813.089 93.592C813.089 82.936 815.201 73.672 819.425 65.8C823.649 57.928 829.601 51.88 837.281 47.656C845.057 43.336 854.177 41.176 864.641 41.176C875.105 41.176 884.177 43.336 891.857 47.656C899.633 51.88 905.585 57.928 909.713 65.8C913.841 73.672 915.905 82.936 915.905 93.592C915.905 104.248 913.841 113.56 909.713 121.528C905.585 129.496 899.633 135.64 891.857 139.96C884.177 144.184 875.105 146.296 864.641 146.296ZM864.641 125.704C872.321 125.704 878.321 122.968 882.641 117.496C887.057 112.024 889.265 104.056 889.265 93.592C889.265 83.224 887.057 75.352 882.641 69.976C878.321 64.504 872.321 61.768 864.641 61.768C856.961 61.768 850.961 64.456 846.641 69.832C842.321 75.208 840.161 83.128 840.161 93.592C840.161 104.152 842.321 112.168 846.641 117.64C850.961 123.016 856.961 125.704 864.641 125.704ZM1020.84 145H992.18L978.932 110.872C977.396 107.032 973.796 105.112 968.132 105.112H958.34V145H931.7V42.472H979.364C991.748 42.472 1001.06 45.16 1007.3 50.536C1013.54 55.816 1016.66 63.4 1016.66 73.288C1016.66 80.2 1014.79 86.2 1011.04 91.288C1007.4 96.28 1002.21 99.832 995.492 101.944C998.372 102.52 1000.96 103.864 1003.27 105.976C1005.57 108.088 1007.4 110.92 1008.74 114.472L1020.84 145ZM975.044 84.952C980.804 84.952 984.98 84.088 987.572 82.36C990.164 80.536 991.46 77.752 991.46 74.008C991.46 70.072 990.164 67.24 987.572 65.512C985.076 63.784 980.9 62.92 975.044 62.92H958.052V84.952H975.044Z" fill="#222222"/>
<mask id="mask0" mask-type="alpha" maskUnits="userSpaceOnUse" x="117" y="14" width="143" height="157">
<path d="M184.952 15.2997C187.205 14.0423 189.953 14.0427 192.206 15.3008L255.742 50.7923C258.078 52.0972 259.524 54.5551 259.524 57.2204L259.514 127.829C259.513 130.494 258.067 132.952 255.73 134.255L192.182 169.729C189.93 170.986 187.182 170.985 184.929 169.727L121.392 134.236C119.056 132.931 117.61 130.473 117.61 127.807L117.621 57.1994C117.621 54.5341 119.068 52.0767 121.405 50.7724L184.952 15.2997Z" fill="white"/>
</mask>
<g mask="url(#mask0)">
<path d="M260.418 39.6328L199.917 91.3433L269.568 130.016L269.746 129.633C276.273 115.468 278.967 99.8084 277.503 84.2185L277.441 83.5778C275.839 67.7492 270.012 52.6801 260.621 39.9072L260.418 39.6328Z" fill="#8968BA"/>
<path d="M192.895 102.64L175.49 180.686L175.936 180.75C192.356 183.032 209.137 180.739 224.39 174.064L224.984 173.802C240.466 166.893 253.612 155.772 262.944 141.787L263.064 141.606L192.895 102.64Z" fill="#4FC1BA"/>
<path d="M117.952 37.3892L117.687 37.7249C109.552 48.1064 103.811 60.1773 100.914 73.081C97.4992 88.2888 98.1533 104.122 102.811 119C107.469 133.877 115.967 147.279 127.458 157.87C137.208 166.855 148.823 173.548 161.445 177.499L161.855 177.626L180.957 94.7878L117.952 37.3892Z" fill="#E55E5E"/>
<path d="M189.992 3.41923C177.364 3.1855 164.829 5.61142 153.209 10.5377C143.783 14.5346 135.132 20.1039 127.623 26.9893L127.284 27.3015L188.492 83.6211L251.762 29.605L251.437 29.2809C244.359 22.2888 236.145 16.5112 227.128 12.1994L226.482 11.8939C215.056 6.54113 202.62 3.65295 189.992 3.41923Z" fill="#FCC760"/>
</g>
</svg>
