<svg width="240" height="264" viewBox="0 0 240 264" fill="none" xmlns="http://www.w3.org/2000/svg">
<mask id="mask0" mask-type="alpha" maskUnits="userSpaceOnUse" x="1" y="0" width="239" height="264">
<path d="M114.045 2.18546C117.825 0.071004 122.439 0.0716856 126.219 2.18726L232.854 61.8672C236.775 64.0615 239.201 68.1945 239.201 72.6762L239.183 191.406C239.182 195.888 236.755 200.02 232.833 202.213L126.179 261.862C122.399 263.977 117.787 263.975 114.006 261.86L7.37087 202.179C3.45016 199.986 1.02393 195.852 1.02393 191.37L1.04171 72.641C1.04233 68.1592 3.47043 64.0269 7.39176 61.8337L114.045 2.18546Z" fill="white"/>
</mask>
<g mask="url(#mask0)">
<path d="M240.7 43.1025L139.16 130.055L256.056 195.085L256.355 194.441C267.31 170.621 271.832 144.29 269.375 118.075L269.27 116.997C266.582 90.381 256.801 65.0419 241.041 43.564L240.7 43.1025Z" fill="#8968BA"/>
<path d="M127.376 149.051L98.1641 280.287L98.912 280.395C126.47 284.232 154.635 280.377 180.234 269.153L181.23 268.711C207.214 257.093 229.277 238.394 244.94 214.877L245.141 214.572L127.376 149.051Z" fill="#4FC1BA"/>
<path d="M1.59566 39.3296L1.15189 39.8942C-12.5014 57.351 -22.1361 77.6484 -26.9989 99.3465C-32.7299 124.919 -31.6321 151.543 -23.8149 176.56C-15.9981 201.577 -1.73535 224.113 17.551 241.921C33.9138 257.03 53.4075 268.285 74.5919 274.929L75.2794 275.141L107.34 135.847L1.59566 39.3296Z" fill="#E55E5E"/>
<path d="M122.503 -17.7919C101.308 -18.185 80.2706 -14.1057 60.7698 -5.82198C44.9486 0.8988 30.4295 10.2638 17.827 21.8418L17.2588 22.3669L119.985 117.07L226.173 26.2401L225.627 25.6951C213.748 13.9378 199.963 4.22259 184.828 -3.0279L183.745 -3.54159C164.568 -12.5424 143.696 -17.3989 122.503 -17.7919Z" fill="#FCC760"/>
</g>
</svg>
